<mxfile host="app.diagrams.net" modified="2023-08-21T11:22:01.619Z" agent="Mozilla/5.0 (Windows NT 10.0; Win64; x64) AppleWebKit/537.36 (KHTML, like Gecko) Chrome/116.0.0.0 Safari/537.36" etag="MrmFFx4CCSJWsgdOKSiM" version="21.6.8" type="device">
  <diagram name="Página-1" id="kBmMgEqk1hkgvxi4D1x6">
    <mxGraphModel dx="1434" dy="758" grid="1" gridSize="10" guides="1" tooltips="1" connect="1" arrows="1" fold="1" page="1" pageScale="1" pageWidth="1169" pageHeight="827" math="0" shadow="0">
      <root>
        <mxCell id="0" />
        <mxCell id="1" parent="0" />
        <mxCell id="Y3sl2S3CRGygaPVQ_nw_-1" value="Usuário" style="shape=umlActor;verticalLabelPosition=bottom;verticalAlign=top;html=1;outlineConnect=0;" vertex="1" parent="1">
          <mxGeometry x="70" y="60" width="40" height="70" as="geometry" />
        </mxCell>
        <mxCell id="Y3sl2S3CRGygaPVQ_nw_-2" value="Lojista&lt;br&gt;" style="shape=umlActor;verticalLabelPosition=bottom;verticalAlign=top;html=1;outlineConnect=0;" vertex="1" parent="1">
          <mxGeometry x="60" y="550" width="30" height="60" as="geometry" />
        </mxCell>
        <mxCell id="Y3sl2S3CRGygaPVQ_nw_-3" value="Registrar usuário" style="ellipse;whiteSpace=wrap;html=1;" vertex="1" parent="1">
          <mxGeometry x="760" y="160" width="120" height="80" as="geometry" />
        </mxCell>
        <mxCell id="Y3sl2S3CRGygaPVQ_nw_-4" value="Sistema&lt;br&gt;" style="shape=umlActor;verticalLabelPosition=bottom;verticalAlign=top;html=1;outlineConnect=0;" vertex="1" parent="1">
          <mxGeometry x="980" y="130" width="30" height="60" as="geometry" />
        </mxCell>
        <mxCell id="Y3sl2S3CRGygaPVQ_nw_-5" value="Registrar lojista&lt;br&gt;" style="ellipse;whiteSpace=wrap;html=1;" vertex="1" parent="1">
          <mxGeometry x="760" y="50" width="120" height="80" as="geometry" />
        </mxCell>
        <mxCell id="Y3sl2S3CRGygaPVQ_nw_-6" value="Efetuar transferencia" style="ellipse;whiteSpace=wrap;html=1;" vertex="1" parent="1">
          <mxGeometry x="150" y="60" width="120" height="80" as="geometry" />
        </mxCell>
        <mxCell id="Y3sl2S3CRGygaPVQ_nw_-7" value="Receber transferência" style="ellipse;whiteSpace=wrap;html=1;" vertex="1" parent="1">
          <mxGeometry x="140" y="550" width="120" height="80" as="geometry" />
        </mxCell>
        <mxCell id="Y3sl2S3CRGygaPVQ_nw_-8" value="Receber notificações do sistema" style="ellipse;whiteSpace=wrap;html=1;" vertex="1" parent="1">
          <mxGeometry x="170" y="320" width="120" height="80" as="geometry" />
        </mxCell>
        <mxCell id="Y3sl2S3CRGygaPVQ_nw_-9" value="Validar informações" style="ellipse;whiteSpace=wrap;html=1;" vertex="1" parent="1">
          <mxGeometry x="760" y="380" width="120" height="80" as="geometry" />
        </mxCell>
        <mxCell id="Y3sl2S3CRGygaPVQ_nw_-10" value="Enviar notificações" style="ellipse;whiteSpace=wrap;html=1;" vertex="1" parent="1">
          <mxGeometry x="760" y="490" width="120" height="80" as="geometry" />
        </mxCell>
        <mxCell id="Y3sl2S3CRGygaPVQ_nw_-11" value="Consulta autorização externa" style="ellipse;whiteSpace=wrap;html=1;" vertex="1" parent="1">
          <mxGeometry x="760" y="270" width="120" height="80" as="geometry" />
        </mxCell>
        <mxCell id="Y3sl2S3CRGygaPVQ_nw_-13" value="" style="rounded=0;whiteSpace=wrap;html=1;fillColor=none;" vertex="1" parent="1">
          <mxGeometry x="730" y="30" width="180" height="590" as="geometry" />
        </mxCell>
        <mxCell id="Y3sl2S3CRGygaPVQ_nw_-16" value="" style="endArrow=classic;html=1;rounded=0;entryX=0;entryY=0.5;entryDx=0;entryDy=0;exitX=1;exitY=0.3333333333333333;exitDx=0;exitDy=0;exitPerimeter=0;" edge="1" parent="1" source="Y3sl2S3CRGygaPVQ_nw_-1" target="Y3sl2S3CRGygaPVQ_nw_-6">
          <mxGeometry width="50" height="50" relative="1" as="geometry">
            <mxPoint x="390" y="220" as="sourcePoint" />
            <mxPoint x="440" y="170" as="targetPoint" />
            <Array as="points" />
          </mxGeometry>
        </mxCell>
        <mxCell id="Y3sl2S3CRGygaPVQ_nw_-17" value="" style="endArrow=classic;html=1;rounded=0;entryX=0.5;entryY=0;entryDx=0;entryDy=0;exitX=1;exitY=0.3333333333333333;exitDx=0;exitDy=0;exitPerimeter=0;" edge="1" parent="1" source="Y3sl2S3CRGygaPVQ_nw_-1" target="Y3sl2S3CRGygaPVQ_nw_-8">
          <mxGeometry width="50" height="50" relative="1" as="geometry">
            <mxPoint x="100" y="260" as="sourcePoint" />
            <mxPoint x="150" y="210" as="targetPoint" />
          </mxGeometry>
        </mxCell>
        <mxCell id="Y3sl2S3CRGygaPVQ_nw_-20" value="" style="endArrow=classic;html=1;rounded=0;entryX=0.5;entryY=1;entryDx=0;entryDy=0;" edge="1" parent="1" target="Y3sl2S3CRGygaPVQ_nw_-8">
          <mxGeometry width="50" height="50" relative="1" as="geometry">
            <mxPoint x="90" y="570" as="sourcePoint" />
            <mxPoint x="140" y="520" as="targetPoint" />
          </mxGeometry>
        </mxCell>
        <mxCell id="Y3sl2S3CRGygaPVQ_nw_-21" value="" style="endArrow=classic;html=1;rounded=0;" edge="1" parent="1" target="Y3sl2S3CRGygaPVQ_nw_-7">
          <mxGeometry width="50" height="50" relative="1" as="geometry">
            <mxPoint x="90" y="570" as="sourcePoint" />
            <mxPoint x="150" y="530" as="targetPoint" />
          </mxGeometry>
        </mxCell>
        <mxCell id="Y3sl2S3CRGygaPVQ_nw_-22" value="" style="endArrow=classic;html=1;rounded=0;entryX=1;entryY=0.312;entryDx=0;entryDy=0;entryPerimeter=0;" edge="1" parent="1" target="Y3sl2S3CRGygaPVQ_nw_-13">
          <mxGeometry width="50" height="50" relative="1" as="geometry">
            <mxPoint x="980" y="150" as="sourcePoint" />
            <mxPoint x="1030" y="100" as="targetPoint" />
          </mxGeometry>
        </mxCell>
      </root>
    </mxGraphModel>
  </diagram>
</mxfile>
